<svg width="1592" height="1902" viewBox="0 0 1592 1902" fill="none" xmlns="http://www.w3.org/2000/svg">
<path d="M0 121C0 54.1735 54.1735 0 121 0H1471C1537.83 0 1592 54.1735 1592 121V1781C1592 1847.83 1537.83 1902 1471 1902H121C54.1736 1902 0 1847.83 0 1781V121Z" fill="white"/>
<path d="M0 69.5672C0 31.1463 31.1462 0 69.5671 0H453.51C461.228 0 467.484 6.25611 467.484 13.9734V13.9734C467.484 20.3006 463.232 25.8383 457.12 27.4726L452.776 28.634C431.651 34.2825 433.88 64.9518 455.6 67.4864L559.167 79.5723C603.755 84.7756 606.872 148.345 563.007 157.885L366.432 200.64C330.159 208.529 308.248 245.594 318.823 281.178V281.178C339.002 349.079 250.047 394.396 206.982 338.154L161.481 278.73C141.113 252.131 99.2067 259.642 89.3456 291.659V291.659C73.9124 341.767 0 330.643 0 278.212V69.5672Z" fill="#6EA8FE"/>
<path d="M1592 1834.15C1592 1871.62 1561.62 1902 1524.15 1902H1148.81C1137.84 1902 1131.37 1889.69 1137.59 1880.65V1880.65C1139.39 1878.04 1142.04 1876.14 1145.09 1875.27L1147.93 1874.46C1170.85 1867.95 1168.29 1834.68 1144.65 1831.75L1051.76 1820.22C1006.43 1814.59 1003.08 1750.15 1047.58 1739.85L1238.14 1695.76C1273.44 1687.6 1294.78 1651.63 1285.03 1616.74V1616.74C1265.92 1548.34 1356.34 1504.87 1397.83 1562.51L1435.24 1614.49C1454.6 1641.39 1496.45 1634.16 1505.66 1602.32V1602.32C1519.84 1553.36 1592 1563.59 1592 1614.57V1834.15Z" fill="#6EA8FE"/>
</svg>
